<svg width="147" height="83" viewBox="0 0 147 83" fill="none" xmlns="http://www.w3.org/2000/svg">
<path d="M140.85 82.2213V78.6535C140.702 79.0194 140.323 79.535 139.714 80.2004C139.105 80.8657 138.281 81.4728 137.244 82.0217C136.223 82.5539 135.021 82.8201 133.638 82.8201C131.695 82.8201 129.975 82.3543 128.476 81.4229C126.978 80.4748 125.801 79.1858 124.944 77.5557C124.105 75.9091 123.685 74.0545 123.685 71.992C123.685 69.9295 124.105 68.0832 124.944 66.4532C125.801 64.8065 126.978 63.5092 128.476 62.5611C129.975 61.613 131.695 61.1389 133.638 61.1389C134.988 61.1389 136.157 61.3718 137.145 61.8375C138.15 62.2866 138.957 62.8189 139.566 63.4343C140.191 64.0331 140.595 64.5737 140.776 65.056V61.7377H147V82.2213H140.85ZM129.835 71.992C129.835 73.1397 130.09 74.1543 130.6 75.0358C131.111 75.9007 131.786 76.5744 132.626 77.0567C133.465 77.5391 134.379 77.7803 135.367 77.7803C136.404 77.7803 137.326 77.5391 138.133 77.0567C138.94 76.5577 139.574 75.8758 140.035 75.0109C140.513 74.1293 140.751 73.123 140.751 71.992C140.751 70.8609 140.513 69.863 140.035 68.998C139.574 68.1165 138.94 67.4262 138.133 66.9272C137.326 66.4282 136.404 66.1787 135.367 66.1787C134.379 66.1787 133.465 66.4282 132.626 66.9272C131.786 67.4096 131.111 68.0915 130.6 68.9731C130.09 69.838 129.835 70.8443 129.835 71.992Z" fill="#010933"/>
<path d="M114.588 82.2213V78.6535C114.44 79.0194 114.061 79.535 113.452 80.2004C112.843 80.8657 112.02 81.4728 110.982 82.0217C109.961 82.5539 108.759 82.8201 107.376 82.8201C105.433 82.8201 103.713 82.3543 102.214 81.4229C100.716 80.4748 99.5387 79.1858 98.6825 77.5557C97.8428 75.9091 97.4229 74.0545 97.4229 71.992C97.4229 69.9295 97.8428 68.0832 98.6825 66.4532C99.5387 64.8065 100.716 63.5092 102.214 62.5611C103.713 61.613 105.433 61.1389 107.376 61.1389C108.727 61.1389 109.896 61.3718 110.884 61.8375C111.888 62.2866 112.695 62.8189 113.304 63.4343C113.93 64.0331 114.333 64.5737 114.514 65.056V61.7377H120.738V82.2213H114.588ZM103.573 71.992C103.573 73.1397 103.828 74.1543 104.338 75.0358C104.849 75.9007 105.524 76.5744 106.364 77.0567C107.203 77.5391 108.117 77.7803 109.105 77.7803C110.143 77.7803 111.065 77.5391 111.871 77.0567C112.678 76.5577 113.312 75.8758 113.773 75.0109C114.251 74.1293 114.489 73.123 114.489 71.992C114.489 70.8609 114.251 69.863 113.773 68.998C113.312 68.1165 112.678 67.4262 111.871 66.9272C111.065 66.4282 110.143 66.1787 109.105 66.1787C108.117 66.1787 107.203 66.4282 106.364 66.9272C105.524 67.4096 104.849 68.0915 104.338 68.9731C103.828 69.838 103.573 70.8443 103.573 71.992Z" fill="#010933"/>
<path d="M90.9624 61.7377H98.1743L88.2703 71.5179L99.0634 82.2213H91.6786L83.2565 73.6636V82.2213H76.9831L76.8696 50.4581C76.8696 50.4581 78.7855 50.0302 80.0562 48.7465C81.327 47.4629 83.2565 44.4677 83.2565 44.4677V69.2475L90.9624 61.7377Z" fill="#010933"/>
<path d="M67.4138 82.2212V61.7377H73.6624V82.2212H67.4138Z" fill="#010933"/>
<path d="M54.2048 82.2213H47.9315V61.7377H54.2048V65.056H54.0813C54.1966 64.6568 54.5095 64.1495 55.0199 63.5341C55.5468 62.9187 56.2713 62.3698 57.1933 61.8874C58.1154 61.3884 59.2268 61.1389 60.5276 61.1389C61.4662 61.1389 62.3141 61.2803 63.0715 61.5631C63.8454 61.8292 64.397 62.0953 64.7263 62.3615L62.2565 67.551C62.0424 67.2848 61.639 67.0104 61.0463 66.7276C60.47 66.4449 59.7455 66.3035 58.8728 66.3035C57.8355 66.3035 56.9711 66.5946 56.2795 67.1767C55.5879 67.7422 55.0693 68.4408 54.7235 69.2725C54.3777 70.0875 54.2048 70.8526 54.2048 71.5678V82.2213Z" fill="#010933"/>
<path d="M29.8949 71.5429C29.8949 73.3725 30.2572 74.8362 30.9817 75.934C31.7061 77.0151 32.8752 77.5557 34.4888 77.5557C36.1189 77.5557 37.2962 77.0151 38.0207 75.934C38.7452 74.8362 39.1074 73.3725 39.1074 71.5429V61.7377H45.282V72.2664C45.282 74.3788 44.8621 76.2334 44.0224 77.8302C43.1826 79.4103 41.9559 80.6411 40.3423 81.5227C38.7452 82.3876 36.794 82.8201 34.4888 82.8201C32.2001 82.8201 30.2489 82.3876 28.6353 81.5227C27.0381 80.6411 25.8197 79.4103 24.98 77.8302C24.1402 76.2334 23.7203 74.3788 23.7203 72.2664V61.7377H29.8949V71.5429Z" fill="#010933"/>
<path d="M5.85351 73.3892C5.9029 74.3206 6.14989 75.1523 6.59446 75.8841C7.03903 76.616 7.68119 77.1898 8.52093 77.6056C9.37714 78.0214 10.398 78.2294 11.5835 78.2294C12.6538 78.2294 13.5923 78.0963 14.3991 77.8302C15.2224 77.564 15.914 77.2397 16.4738 76.8571C17.0501 76.4579 17.4782 76.0754 17.7581 75.7095L20.3514 79.6016C19.8904 80.1837 19.2729 80.7243 18.4991 81.2233C17.7416 81.7057 16.7702 82.0882 15.5847 82.371C14.4156 82.6704 12.9502 82.8201 11.1884 82.8201C8.9655 82.8201 7.01433 82.3793 5.33484 81.4977C3.65536 80.6162 2.34634 79.3438 1.40781 77.6805C0.469268 76.0172 0 74.0378 0 71.7425C0 69.7465 0.419872 67.9502 1.25962 66.3534C2.09936 64.74 3.31781 63.4676 4.91497 62.5361C6.5286 61.6047 8.4633 61.1389 10.7191 61.1389C12.8431 61.1389 14.6791 61.5548 16.2268 62.3864C17.791 63.2014 19.0013 64.399 19.8575 65.9792C20.7137 67.5593 21.1418 69.4887 21.1418 71.7674C21.1418 71.9005 21.1336 72.1749 21.1171 72.5908C21.1171 72.99 21.1006 73.2561 21.0677 73.3892H5.85351ZM15.2636 69.4721C15.2471 68.9398 15.0825 68.366 14.7696 67.7506C14.4732 67.1351 14.004 66.6112 13.3618 66.1787C12.7196 65.7463 11.8634 65.5301 10.7932 65.5301C9.72292 65.5301 8.84201 65.738 8.15045 66.1538C7.47537 66.5696 6.96493 67.0852 6.61916 67.7007C6.27338 68.2995 6.07579 68.8899 6.0264 69.4721H15.2636Z" fill="#010933"/>
<path d="M87.2437 20.2021C87.2571 23.2106 86.6832 26.1377 85.8424 29.0106C84.9349 32.1004 83.6938 35.0546 82.2124 37.9005C81.1314 39.9603 79.957 41.9795 78.5424 43.8225C77.3813 45.3267 75.9533 46.4108 74.0983 46.8851C71.6427 47.5221 69.4807 46.98 67.559 45.3403C66.171 44.1613 65.0099 42.7384 63.9423 41.2612C62.2741 38.971 60.8061 36.5317 59.5916 33.9569C58.0435 30.6775 56.7891 27.3031 56.1485 23.7255C55.7881 21.7605 55.7214 19.782 56.1351 17.817C56.4955 16.0824 57.2828 14.5376 58.3905 13.1824C59.4849 11.8273 60.8061 10.716 62.3675 9.93004C64.0357 9.08984 65.7973 8.65619 67.6791 8.62909C69.6943 8.61554 71.576 9.07629 73.3376 10.0249C74.7923 10.8244 76.0468 11.8815 77.1011 13.1824C78.4089 14.7815 79.1963 16.5974 79.53 18.6166C79.7435 19.8498 79.6768 21.083 79.53 22.3026C79.2897 24.4167 78.796 26.4765 78.142 28.4957C77.6349 30.0541 77.021 31.5854 76.3537 33.0761C75.553 34.8242 74.6054 36.5046 73.7246 38.2121C73.2442 39.1336 72.0698 39.4995 71.2023 39.0117C70.3348 38.5103 70.0546 37.3448 70.5751 36.4504C71.963 34.0518 73.1908 31.5854 74.1784 28.9835C75.0325 26.734 75.6864 24.4302 75.9533 22.0316C76.1402 20.3783 76.0601 18.7521 75.3661 17.2072C74.4053 15.039 72.8038 13.5348 70.5751 12.803C67.5456 11.8137 64.6897 12.2203 62.194 14.2801C60.379 15.7843 59.4849 17.817 59.4315 20.2157C59.3648 22.9937 60.0454 25.6227 60.9662 28.2111C61.9405 30.9349 63.1683 33.5368 64.6496 36.0168C65.5438 37.521 66.4913 38.9981 67.6123 40.3533C68.3864 41.2883 69.2005 42.2098 70.2281 42.8874C71.6427 43.8089 73.6579 43.6057 74.8724 42.4402C76.2069 41.1664 77.1411 39.5944 78.0753 38.0224C79.9971 34.7836 81.3717 31.3008 82.4793 27.7097C83.0399 25.8802 83.4002 24.0101 83.587 22.0993C83.894 18.9283 83.3602 15.9063 81.8788 13.0876C81.2115 11.8273 80.3707 10.6754 79.4099 9.63191C78.0886 8.19544 76.5539 7.05711 74.8323 6.18981C73.2041 5.36316 71.4692 4.92951 69.6676 4.69914C67.2654 4.401 64.9032 4.63138 62.6211 5.41737C60.4724 6.16271 58.5507 7.28749 56.8825 8.85947C54.2534 11.3394 52.6252 14.3749 52.0247 17.9661C51.8245 19.1451 51.8512 20.3376 51.9313 21.5437C52.2115 25.8802 53.5995 29.905 55.281 33.8485C56.7624 37.3313 58.7642 40.4888 60.9128 43.565C62.3408 45.6113 63.929 47.5221 65.5838 49.3922C66.7048 50.666 67.8526 51.9399 69.0003 53.1866C69.5475 53.7829 70.108 54.352 70.6685 54.9212C71.4158 55.6936 71.4425 56.832 70.7352 57.5638C70.0145 58.3091 68.8268 58.3091 68.1195 57.496C67.3855 56.6558 66.6381 55.8021 65.8908 54.9754C65.2101 54.2301 64.5429 53.4576 63.8756 52.6852C62.9948 51.6688 62.1273 50.6389 61.2598 49.609C59.605 47.6305 58.0969 45.5435 56.6556 43.4024C55.7081 41.993 54.8406 40.5295 54.0265 39.0388C52.4918 36.2336 51.1972 33.32 50.183 30.2845C49.4757 28.1433 48.9018 25.9751 48.5815 23.7391C48.3947 22.4246 48.2612 21.1101 48.3146 19.7956C48.3947 18.0068 48.6616 16.2586 49.1954 14.5511C49.9428 12.1254 51.0771 9.88938 52.692 7.93796C53.7329 6.69122 54.9073 5.55289 56.2552 4.60428C58.3371 3.14071 60.5659 2.00238 63.0481 1.39256C64.8631 0.986012 66.7315 0.728533 68.6133 0.850497C71.3358 1.02667 73.9515 1.60938 76.4071 2.85613C78.7159 4.02156 80.7444 5.57999 82.466 7.54497C84.2943 9.61835 85.5889 12.0034 86.3896 14.6595C86.83 16.0824 87.1103 17.5325 87.2304 19.0096C87.2704 19.4026 87.2304 19.7956 87.2304 20.1886L87.2437 20.2021Z" fill="#010933"/>
</svg>
